/* XPM */
static char *dataset_open[] = {
"16 16 153 2 0 0",
"   c #8AB7D7",
"!  c #87B5D6",
"#  c #86B5D5",
"$  c #9BC4E0",
"%  c #B3D5EC",
"&  c #B6D7EC",
"'  c #B4D5EC",
"(  c #ADD0E8",
")  c #9AC3DF",
"*  c #8EBAD9",
"+  c #94BFDC",
",  c #A6CBE5",
"-  c #BBDAEF",
".  c #C1DFF3",
"/  c #C4E0F4",
"0  c #BCDBF0",
"1  c #BAD9EE",
"2  c #B6D7ED",
"3  c #B4D5EB",
"4  c #ACCFE8",
"5  c #98C1DE",
"6  c #98C2DF",
"7  c #B5D6ED",
"8  c #C3DFF3",
"9  c #CAE5F6",
":  c #CAE5F7",
";  c #C7E3F6",
"<  c #BDDCF0",
"=  c #BFDDF1",
">  c #B7D7ED",
"?  c #94C0DE",
"@  c #81B3D4",
"A  c #97C2E0",
"B  c #B9DAF1",
"C  c #BCDCF1",
"D  c #BBDBEF",
"E  c #C4E1F4",
"F  c #C8E3F6",
"G  c #BEDCF1",
"H  c #B6D6ED",
"I  c #A6CCE6",
"J  c #A5CCE6",
"K  c #AAD1EB",
"L  c #A6CFE9",
"M  c #8ABAD9",
"N  c #97C2DF",
"O  c #BCDDF3",
"P  c #BEDFF4",
"Q  c #BCDCF2",
"R  c #B7D8EE",
"S  c #A9CEE7",
"T  c #A5CBE5",
"U  c #A9CFE9",
"V  c #AAD2EB",
"W  c #ACD4ED",
"X  c #B2D9F0",
"Y  c #AED5ED",
"Z  c #8EBDDC",
"[  c #96C1DF",
"]  c #C3E2F6",
"^  c #C1E0F5",
"_  c #B8DAF0",
"`  c #B0D4EC",
"a  c #9CC6E2",
"b  c #9BC7E3",
"c  c #B3D9F1",
"d  c #B4DAF1",
"e  c #B3DAF1",
"f  c #8DBDDC",
"g  c #95C1DF",
"h  c #BCDDF2",
"i  c #BFDFF4",
"j  c #BEDEF3",
"k  c #BBDCF2",
"l  c #B3D6ED",
"m  c #9AC5E1",
"n  c #9CC8E4",
"o  c #AFD6EE",
"p  c #B1D8F0",
"q  c #B1D8F1",
"r  c #AAD3EC",
"s  c #8DBCDC",
"t  c #93BFDD",
"u  c #B7D9EF",
"v  c #B4D6ED",
"w  c #AED2EA",
"x  c #9BC7E4",
"y  c #85AB8F",
"z  c #6A9465",
"{  c #6B986B",
"|  c #7CA37C",
"}  c #699464",
"~  c #688E56",
" ! c #91BDDB",
"!! c #B2D5ED",
"#! c #B5D7EE",
"$! c #B1D4EC",
"%! c #B0D4EB",
"&! c #ADD2EA",
"'! c #9AC6E2",
"(! c #9BC8E4",
")! c #6E9A6A",
"*! c #83A984",
"+! c #99B89A",
",! c #E0E5E1",
"-! c #84A985",
".! c #669466",
"/! c #8CBAD9",
"0! c #ABD0E9",
"1! c #B0D3EB",
"2! c #ADD2EB",
"3! c #98C5E1",
"4! c #98C6E3",
"5! c #6C996D",
"6! c #9BB99C",
"7! c #ADC4AE",
"8! c #ECEDED",
"9! c #ADC5AE",
":! c #87B6D6",
";! c #A4CCE6",
"<! c #B0D3EC",
"=! c #ADD1EA",
">! c #97C3E1",
"?! c #96C4E2",
"@! c #7AA17A",
"A! c #DAE0DB",
"B! c #E9EAEA",
"C! c #7FB1D3",
"D! c #90BEDC",
"E! c #A3CAE5",
"F! c #AACFE9",
"G! c #96C2E0",
"H! c #93C2E1",
"I! c #609060",
"J! c #739C73",
"K! c #8CAC8C",
"L! c #E6E6E6",
"M! c #8DAD8D",
"N! c #83B4D6",
"O! c #8EBBDA",
"P! c #9DC5E2",
"Q! c #92BFDE",
"R! c #8DBDDD",
"S! c #5C8D60",
"T! c #5A8C5A",
"U! c #729C72",
"V! c #D5DBD5",
"W! c #88B7D8",
"X! c #7CB0D2",
"Y! c #7AAED1",
"Z! c #619372",
"[! c #779F77",
"]! c None",
"]!]!]!]!]!]!]!]!]!]!]!]!]!]!]!]!",
"]!]!]!]!]!]!]!  ! ]!]!]!]!]!]!]!",
"]!]!]!]!# $ % & ' ( ) * ]!]!]!]!",
"]!]!+ , - . / 0 1 0 2 3 4 5 ]!]!",
"]!6 7 8 9 : ; < - = < > , ? @ ]!",
"]!A B C D E F G - H I J K L M ]!",
"]!N O P Q R ' S T U V W X Y Z ]!",
"]![ P ] ^ _ ` a b W c d e W f ]!",
"]!g h i j k l m n o p q p r s ]!",
"]!t _ k u v w m x y z { | { } ~ ",
"]! !!!#!$!%!&!'!(!)!*!+!,!+!-!.!",
"]!/!0!1!l l 2!3!4!5!6!7!8!9!6!5!",
"]!:!;!0!<!$!=!>!?!@!A!B!B!B!A!@!",
"]!]!C!D!E!F!F!G!H!I!J!K!L!M!J!I!",
"]!]!]!]!N!O!P!Q!R!S!T!U!V!J!T!T!",
"]!]!]!]!]!]!W!X!Y!Z!T!I![!I!T!T!"
};
