/* XPM */
static char *disk[] = {
"16 16 74 1 0 0",
"  c #A2A2A2",
"! c #B4B4B4",
"# c #B3B3B3",
"$ c #B2B2B2",
"% c #B1B1B1",
"& c #B0B0B0",
"' c #AFAFAF",
"( c #AEAEAE",
") c #9B9B9B",
"* c #8D8D8D",
"+ c #E0E0E0",
", c #E9E9E9",
"- c #E8E8E8",
". c #E6E6E6",
"/ c #E3E3E3",
"0 c #E1E1E1",
"1 c #D4D4D4",
"2 c #848484",
"3 c #E7E7E7",
"4 c #E5E5E5",
"5 c #DFDFDF",
"6 c #DCDCDC",
"7 c #DBDBDB",
"8 c #A7A7A7",
"9 c #D2D2D2",
": c #E2E2E2",
"; c #DDDDDD",
"< c #C3C3C3",
"= c #A1A1A1",
"> c #DEDEDE",
"? c #949494",
"@ c #C0C0C0",
"A c #E4E4E4",
"B c #DADADA",
"C c #787878",
"D c #D6D6D6",
"E c #D7D7D7",
"F c #CACACA",
"G c #747474",
"H c #767676",
"I c #CBCBCB",
"J c #C7C7C7",
"K c #C6C6C6",
"L c #C5C5C5",
"M c #C2C2C2",
"N c #C1C1C1",
"O c #BFBFBF",
"P c #BDBDBD",
"Q c #BCBCBC",
"R c #6D6D6D",
"S c #909090",
"T c #9D9D9D",
"U c #A5A5A5",
"V c #AAAAAA",
"W c #ACACAC",
"X c #ABABAB",
"Y c #A9A9A9",
"Z c #A8A8A8",
"[ c #696969",
"] c #ADADAD",
"^ c #676767",
"_ c #929292",
"` c #999999",
"a c #969696",
"b c #919191",
"c c #8F8F8F",
"d c #8E8E8E",
"e c #8B8B8B",
"f c #8A8A8A",
"g c #888888",
"h c #868686",
"i c #838383",
"j c #797979",
"k c None",
"kkkkkkkkkkkkkkkk",
"kkkkkkkkkkkkkkkk",
"kkk !#$$%&'()kkk",
"kk*+,,-.//0+12kk",
"kk#34./0005678kk",
"kk9./00/:+;76<kk",
"k=5/+0/:5;66>1?k",
"k@0>A4:+5>++BB$k",
"CDA;>0///0>BE5FG",
"HIFJJKKL<MNOPQ#R",
"H@ STUVW8VXY8Z=[",
"GN!Y]'%%]'&]XW=^",
"k_`a?bcdefgh2ijk",
"kkkkkkkkkkkkkkkk",
"kkkkkkkkkkkkkkkk",
"kkkkkkkkkkkkkkkk"
};
