/* XPM */
static char *folder[] = {
"16 16 109 2 0 0",
"   c #E1DEDA",
"!  c #ACA48F",
"#  c #E0DCD5",
"$  c #ECE4B2",
"%  c #F8EDB6",
"&  c #F6ECA9",
"'  c #F3E192",
"(  c #AAA18D",
")  c #A89F8B",
"*  c #A69C89",
"+  c #A69B89",
",  c #A49A87",
"-  c #A39986",
".  c #A09684",
"/  c #A09583",
"0  c #8F8475",
"1  c #A8A08B",
"2  c #F9F0BE",
"3  c #F8F2B4",
"4  c #FBECAA",
"5  c #FBE9A0",
"6  c #FCE595",
"7  c #FCDF8A",
"8  c #FBD87F",
"9  c #F8D274",
":  c #F4CA68",
";  c #F1C05D",
"<  c #7A7063",
"=  c #F7F0AB",
">  c #FAECA2",
"?  c #FBE695",
"@  c #FCE189",
"A  c #FCDC7D",
"B  c #FAD36F",
"C  c #F7CC63",
"D  c #F3C355",
"E  c #EFB949",
"F  c #CF9919",
"G  c #FAEEB0",
"H  c #FAEBA4",
"I  c #F9D571",
"J  c #F7CD65",
"K  c #F3C458",
"L  c #E7A935",
"M  c #C78F0C",
"N  c #6B6357",
"O  c #9F9583",
"P  c #FBECA5",
"Q  c #FBE798",
"R  c #FBDD7F",
"S  c #F0BB4B",
"T  c #ECB23D",
"U  c #E3A42C",
"V  c #BF8A0C",
"W  c #5C5349",
"X  c #9C9180",
"Y  c #FBE89B",
"Z  c #FCE38F",
"[  c #FBDD81",
"]  c #F7CE68",
"^  c #F4C55B",
"_  c #F0BC4D",
"`  c #E8A932",
"a  c #E29E24",
"b  c #B48210",
"c  c #4B433B",
"d  c #988E7D",
"e  c #F6EAB0",
"f  c #FBE99F",
"g  c #FCE492",
"h  c #FAD675",
"i  c #F4C65D",
"j  c #ECB441",
"k  c #E8AA35",
"l  c #E6A32A",
"m  c #DC961D",
"n  c #A97C15",
"o  c #3B342D",
"p  c #958A7A",
"q  c #F6E8AA",
"r  c #FBDF84",
"s  c #F7D06A",
"t  c #F0BE50",
"u  c #E6A42B",
"v  c #DF9A20",
"w  c #D79016",
"x  c #9F771B",
"y  c #2D2720",
"z  c #928777",
"{  c #F0DFA2",
"|  c #EACD70",
"}  c #E2B849",
"~  c #DBAE37",
" ! c #D9A92D",
"!! c #D2A126",
"#! c #C79821",
"$! c #BC8E20",
"%! c #AE831E",
"&! c #AB7F19",
"'! c #96721F",
"(! c #211C16",
")! c #857A6C",
"*! c #776D60",
"+! c #665D51",
",! c #544C42",
"-! c #413A31",
".! c #302A23",
"/! c #18130E",
"0! c None",
"0!0!0!0!0!0!0!0!0!0!0!0!0!0!0!0!",
"0!0!0!0!0!0!0!0!0!0!0!0!0!0!0!0!",
"  ! ! ! ! ! # 0!0!0!0!0!0!0!0!0!",
"! $ % % & ' ( # 0!0!0!0!0!0!0!0!",
"( ( ( ( ( ) * + , - . . / / 0 0!",
"1 2 2 2 2 3 4 5 6 7 8 9 : ; < 0!",
"* 2 % % = > ? @ A B C D E F < 0!",
"- 2 % G H ? @ A I J K E L M N 0!",
"O 2 = P Q @ R I J K S T U V W 0!",
"X % 4 Y Z [ I ] ^ _ T ` a b c 0!",
"d e f g [ h ] i _ j k l m n o 0!",
"p q 6 r h s i t j k u v w x y 0!",
"z { | } ~  !!!#!$!%!&!n x '!(!0!",
"0 )!*!+!,!-!.!(!/!/!/!/!/!/!/!0!",
"0!0!0!0!0!0!0!0!0!0!0!0!0!0!0!0!",
"0!0!0!0!0!0!0!0!0!0!0!0!0!0!0!0!"
};
