/* XPM */
static char *folder_open[] = {
"16 16 127 2 0 0",
"   c #E1DEDA",
"!  c #ACA48F",
"#  c #E0DCD5",
"$  c #DAD2A0",
"%  c #F7F0AB",
"&  c #F9EEA6",
"'  c #FBEB9F",
"(  c #AAA18D",
")  c #ABA28E",
"*  c #F6EEA7",
"+  c #FDE898",
",  c #FBD471",
"-  c #A79E89",
".  c #A39986",
"/  c #9F9482",
"0  c #9A907E",
"1  c #978C7A",
"2  c #938877",
"3  c #A8A08B",
"4  c #F6EAA0",
"5  c #FEE898",
"6  c #FFDA7A",
"7  c #FFD467",
"8  c #A59C88",
"9  c #F3E69A",
":  c #B9AC8B",
";  c #B7AA8A",
"<  c #B3A688",
"=  c #AFA386",
">  c #AA9F83",
"?  c #A69A81",
"@  c #A1957F",
"A  c #9D917C",
"B  c #998E7A",
"C  c #958B79",
"D  c #A39A86",
"E  c #F2E192",
"F  c #DEC480",
"G  c #B0A78E",
"H  c #FDDE81",
"I  c #FFE084",
"J  c #FFDF81",
"K  c #FFDD7B",
"L  c #FFD874",
"M  c #FFD66B",
"N  c #D1A956",
"O  c #A49B8F",
"P  c #9F9583",
"Q  c #F1DC89",
"R  c #FFE28C",
"S  c #B1A88D",
"T  c #C7BA8C",
"U  c #FFD05F",
"V  c #FFCD54",
"W  c #FCC54B",
"X  c #F7BB41",
"Y  c #DBA22E",
"Z  c #746751",
"[  c #C6C0B2",
"]  c #9C9180",
"^  c #EFD781",
"_  c #E0C57D",
"`  c #B0A68C",
"a  c #FEDD80",
"b  c #FFD368",
"c  c #FFD162",
"d  c #FFCD58",
"e  c #FCC74E",
"f  c #F7BE46",
"g  c #F2B63B",
"h  c #ECAC31",
"i  c #816925",
"j  c #A1957A",
"k  c #988E7D",
"l  c #ECD279",
"m  c #ADA48B",
"n  c #CEC289",
"o  c #FFD871",
"p  c #FFD365",
"q  c #FFCE5C",
"r  c #FEC951",
"s  c #FAC149",
"t  c #F5B93F",
"u  c #EEB034",
"v  c #E9A829",
"w  c #CD8510",
"x  c #5B4B22",
"y  c #958A7A",
"z  c #D3BE7E",
"{  c #AEA48A",
"|  c #FFDC7E",
"}  c #FFCF5F",
"~  c #FFCB55",
" ! c #FAC44C",
"!! c #F5BC41",
"#! c #F0B337",
"$! c #EBAA2E",
"%! c #E5A024",
"&! c #D48C13",
"'! c #806723",
"(! c #6D695E",
")! c #928777",
"*! c #ABA189",
"+! c #D4B26A",
",! c #CD8F00",
"-! c #C78C04",
".! c #BE8808",
"/! c #B4820F",
"0! c #A97C15",
"1! c #9F771B",
"2! c #96721F",
"3! c #5C4B22",
"4! c #B5AD9B",
"5! c #8F8475",
"6! c #8F8066",
"7! c #877960",
"8! c #7B6E57",
"9! c #6F624E",
":! c #615644",
";! c #524839",
"<! c #433A2E",
"=! c #352E25",
">! c #29221B",
"?! c #1E1914",
"@! c #16120E",
"A! c #18130E",
"B! c None",
"B!B!B!B!B!B!B!B!B!B!B!B!B!B!B!B!",
"B!B!B!B!B!B!B!B!B!B!B!B!B!B!B!B!",
"  ! ! ! ! ! # B!B!B!B!B!B!B!B!B!",
"! $ % % & ' ( # B!B!B!B!B!B!B!B!",
") * % & ' + , - . / 0 1 2 B!B!B!",
"3 4 & ' 5 6 7 7 7 7 7 7 2 B!B!B!",
"8 9 ' 5 : : ; < = > ? @ A B C 2 ",
"D E + F G H I I I I J K L M N O ",
"P Q R S T L 7 7 7 U V W X Y Z [ ",
"] ^ _ ` a b 7 c d e f g h i j B!",
"k l m n o p q r s t u v w x [ B!",
"y z { | } ~  !!!#!$!%!&!'!(!B!B!",
")!*!+!,!,!,!-!.!/!0!1!2!3!4!B!B!",
"5!6!7!8!9!:!;!<!=!>!?!@!A!B!B!B!",
"B!B!B!B!B!B!B!B!B!B!B!B!B!B!B!B!",
"B!B!B!B!B!B!B!B!B!B!B!B!B!B!B!B!"
};
