/* XPM */
static char *mem[] = {
"16 16 98 2 0 0",
"   c #1B851B",
"!  c #1A851A",
"#  c #1B851A",
"$  c #187F17",
"%  c #4CA64C",
"&  c #54A554",
"'  c #5CA15C",
"(  c #5AA05A",
")  c #5BA85B",
"*  c #53A453",
"+  c #5CA85C",
",  c #197A17",
"-  c #4EA24D",
".  c #507550",
"/  c #5C615C",
"0  c #517551",
"1  c #4E724E",
"2  c #5D615D",
"3  c #537653",
"4  c #197B17",
"5  c #40923E",
"6  c #486648",
"7  c #3C3A3C",
"8  c #3C3B3C",
"9  c #446144",
":  c #456145",
";  c #486548",
"<  c #40933E",
"=  c #418F40",
">  c #456045",
"?  c #403E40",
"@  c #403F40",
"A  c #425D42",
"B  c #435C43",
"C  c #42903F",
"D  c #1C6714",
"E  c #428B41",
"F  c #3F593F",
"G  c #444344",
"H  c #3E583E",
"I  c #3E573E",
"J  c #1C5F13",
"K  c #3E833C",
"L  c #415941",
"M  c #494849",
"N  c #405940",
"O  c #1D5612",
"P  c #397837",
"Q  c #3C523C",
"R  c #424042",
"S  c #3B513B",
"T  c #3C513C",
"U  c #1D4E10",
"V  c #337032",
"W  c #2D512E",
"X  c #28382A",
"Y  c #273728",
"Z  c #335635",
"[  c #355836",
"]  c #2F542F",
"^  c #29392A",
"_  c #347232",
"`  c #1A400C",
"a  c #3C6A27",
"b  c #497026",
"c  c #466B25",
"d  c #466A24",
"e  c #496F28",
"f  c #466D25",
"g  c #456A25",
"h  c #396725",
"i  c #2C5C23",
"j  c #456C27",
"k  c #476B25",
"l  c #3D6A29",
"m  c #26571E",
"n  c #4A671B",
"o  c #6C8A26",
"p  c #6B8825",
"q  c #6B8725",
"r  c #698625",
"s  c #698525",
"t  c #6B8826",
"u  c #415C14",
"v  c #233B0B",
"w  c #648124",
"x  c #6D8A26",
"y  c #4A661B",
"z  c #1F3109",
"{  c #26380D",
"|  c #25360C",
"}  c #24360C",
"~  c #192807",
" ! c #101B03",
"!! c #23340B",
"#! c #25370C",
"$! c #1D2E09",
"%! c None",
"%!%!%!%!%!%!%!%!%!%!%!%!%!%!%!%!",
"%!%!%!%!%!%!%!%!%!%!%!%!%!%!%!%!",
"%!%!%!%!%!%!%!%!%!%!%!%!%!%!%!%!",
"%!%!  ! # # # ! # # # ! # # %!%!",
"$ % & ' ( ) * ' ( ) * ' ( + % $ ",
", - . / / 0 1 2 / 0 1 2 / 3 - 4 ",
"%!5 6 7 8 9 : 8 8 9 : 8 8 ; < %!",
"%!= > ? @ A B @ @ A B @ ? > C %!",
"D E F G G H I G G H I G G F E D ",
"J K L M M N L M M N L M M L K J ",
"O P Q R R S T R R S T R R T P O ",
"U V W X Y Z W X Y [ ] ^ Y [ _ U ",
"` a b c d e f g c h i j k l m %!",
"%!n o p p q r s t u v w x y %!%!",
"%!z { | | | } } | ~  !!!#!$!%!%!",
"%!%!%!%!%!%!%!%!%!%!%!%!%!%!%!%!"
};
