/* XPM */
static char *raster[] = {
"16 16 8 1 0 0",
"  c #214A87",
"! c #5783B8",
"# c #729FD0",
"$ c #4570A7",
"% c #3C669F",
"& c #335D97",
"' c #355F99",
"( c None",
"     !####!     ",
"     !####!     ",
"     !####!     ",
"     !####!     ",
"     !####!     ",
"!!!!!$%%%%$!!!!!",
"#####%    %#####",
"#####%    %#####",
"#####%    %#####",
"#####%    %#####",
"!!!!!&    '#####",
"           (((((",
"           (((((",
"           (((((",
"           (((((",
"           ((((("
};
