/* XPM */
static char *raster_open[] = {
"16 16 39 1 0 0",
"  c #214A87",
"! c #5783B8",
"# c #729FD0",
"$ c #4570A7",
"% c #3C669F",
"& c #9DB79D",
"' c #6C986C",
"( c #6B986B",
") c #7CA37C",
"* c #659469",
"+ c #66958C",
", c #335D97",
"- c #6D996D",
". c #82A983",
"/ c #99B89A",
"0 c #E0E5E1",
"1 c #659468",
"2 c #6C996C",
"3 c #9BB99C",
"4 c #ADC4AE",
"5 c #ECEDED",
"6 c #ADC5AE",
"7 c #6C996D",
"8 c #7AA17A",
"9 c #DAE0DB",
": c #E9EAEA",
"; c #609060",
"< c #739C73",
"= c #8CAC8C",
"> c #E6E6E6",
"? c #8DAD8D",
"@ c #57895C",
"A c #5A8C5A",
"B c #729C72",
"C c #D5DBD5",
"D c #43716C",
"E c #588A5B",
"F c #779F77",
"G c None",
"     !####!     ",
"     !####!     ",
"     !####!     ",
"     !####!     ",
"     !####!     ",
"!!!!!$%%%%$!!!!!",
"#####%    %#####",
"#####%    %#####",
"#####%    %#####",
"#####%   &'()(*+",
"!!!!!,   -./0/.1",
"         2345637",
"         89:::98",
"         ;<=>?<;",
"         @ABC<AA",
"         DE;F;AA"
};
