/* XPM */
static char *vector_open[] = {
"16 16 217 2 0 0",
"   c #1CB2E5",
"!  c #1FB3E6",
"#  c #2EAED8",
"$  c #3DC6EC",
"%  c #52D4F1",
"&  c #68E1F5",
"'  c #5BA2B2",
"(  c #AD919E",
")  c #F6CEDC",
"*  c #F3C0D2",
"+  c #F1B3C8",
",  c #EFA8C1",
"-  c #EEA3BD",
".  c #EFA5BE",
"/  c #F0ADC4",
"0  c #F2B9CD",
"1  c #0BA7E2",
"2  c #0FAAE3",
"3  c #2E89AF",
"4  c #33C1EA",
"5  c #4BCFEF",
"6  c #62DEF4",
"7  c #58A1B1",
"8  c #AD8F9D",
"9  c #F6CBDA",
":  c #F3BCCF",
";  c #F1AFC5",
"<  c #ED9BB7",
"=  c #ED9EB9",
">  c #EFA9C1",
"?  c #F2B5CA",
"@  c #05A4E1",
"A  c #2C84AB",
"B  c #38A1C5",
"C  c #4AC2E1",
"D  c #61DDF4",
"E  c #5BAABB",
"F  c #A58896",
"G  c #F6CCDB",
"H  c #F3BED0",
"I  c #F1B0C6",
"J  c #EEA1BB",
"K  c #F0AAC2",
"L  c #F2B7CB",
"M  c #13ACE3",
"N  c #16AEE4",
"O  c #387392",
"P  c #418EAC",
"Q  c #4ED1F0",
"R  c #65DFF5",
"S  c #78E9F6",
"T  c #1F081B",
"U  c #F6D1DE",
"V  c #F4C3D4",
"W  c #F2B6CB",
"X  c #F1B1C7",
"Y  c #26B8E8",
"Z  c #28BAE8",
"[  c #3B94B5",
"]  c #489CB8",
"^  c #58A3B7",
"_  c #6DE4F6",
"`  c #80F0FA",
"a  c #F8D7E3",
"b  c #E0B8C7",
"c  c #725062",
"d  c #E0AABE",
"e  c #F4C6D6",
"f  c #3FC8ED",
"g  c #4C9BB5",
"h  c #5695A9",
"i  c #61A9BA",
"j  c #78EBF9",
"k  c #88F5FC",
"l  c #CEB6C0",
"m  c #64495A",
"n  c #66495A",
"o  c #D9AEBF",
"p  c #977183",
"q  c #E6B8C9",
"r  c #F5CAD9",
"s  c #F7D1DE",
"t  c #55D5F1",
"u  c #56D6F2",
"v  c #5CBBD0",
"w  c #66C1D2",
"x  c #6DB0BC",
"y  c #84F2FB",
"z  c #90FAFD",
"{  c #D7C5CD",
"|  c #C0A9B3",
"}  c #654C5C",
"~  c #957786",
" ! c #836676",
"!! c #866A79",
"#! c #EDCDD9",
"$! c #F9DEE7",
"%! c #6EE5F6",
"&! c #69A2AD",
"'! c #6EA1AB",
"(! c #7ABBC2",
")! c #8FFAFD",
"*! c #547782",
"+! c #7F707B",
",! c #FDF3F7",
"-! c #FBECF2",
".! c #B8A4AF",
"/! c #6E5766",
"0! c #705867",
"1! c #A38B97",
"2! c #7F6977",
"3! c #8E7A87",
"4! c #81F1FA",
"5! c #82F2FB",
"6! c #7ED1D8",
"7! c #7CBBC0",
"8! c #65848C",
"9! c #FFFFFF",
":! c #FEFBFC",
";! c #FDF7F9",
"<! c #FDF3F6",
"=! c #CEBFC7",
">! c #B2A2AB",
"?! c #73606E",
"@! c #EADEE3",
"A! c #E8DEE2",
"B! c #92FBFE",
"C! c #72BBC2",
"D! c #977D81",
"E! c #F8F5F3",
"F! c #7A6B74",
"G! c #9DB79D",
"H! c #6C986C",
"I! c #6B986B",
"J! c #7CA37C",
"K! c #699468",
"L! c #A7C0A6",
"M! c #8EEBED",
"N! c #F8F5F1",
"O! c #FEF8F1",
"P! c #FEF5EB",
"Q! c #FDF3E7",
"R! c #FDF3E6",
"S! c #E3E0E2",
"T! c #6D996D",
"U! c #82A983",
"V! c #99B89A",
"W! c #E0E5E1",
"X! c #6E9A6E",
"Y! c #4A606C",
"Z! c #DCD4D0",
"[! c #F88685",
"]! c #F89089",
"^! c #F99E93",
"_! c #FAD8C0",
"`! c #F69188",
"a! c #6F081B",
"b! c #6C996C",
"c! c #9BB99C",
"d! c #ADC4AE",
"e! c #ECEDED",
"f! c #ADC5AE",
"g! c #6C996D",
"h! c #FDF1E1",
"i! c #F9AEA2",
"j! c #F8AE99",
"k! c #FADCB5",
"l! c #F67769",
"m! c #F78A77",
"n! c #F66A61",
"o! c #F8A48E",
"p! c #7AA17A",
"q! c #DAE0DB",
"r! c #E9EAEA",
"s! c #BEAEA7",
"t! c #FBE8CE",
"u! c #F89C89",
"v! c #F69279",
"w! c #F6B286",
"x! c #F5775C",
"y! c #F6C88A",
"z! c #F5765E",
"{! c #F7A683",
"|! c #609060",
"}! c #739C73",
"~! c #8CAC8C",
" # c #E6E6E6",
"!# c #8DAD8D",
"## c #FCEBD5",
"$# c #FADFBC",
"%# c #F8C096",
"&# c #F58564",
"'# c #F59A65",
"(# c #F48F59",
")# c #F4A261",
"*# c #F4945E",
"+# c #F58860",
",# c #638D5C",
"-# c #5A8C5A",
".# c #729C72",
"/# c #D5DBD5",
"0# c #619161",
"1# c #FBE5C9",
"2# c #F9D7AC",
"3# c #F6A578",
"4# c #F48F5C",
"5# c #F3874B",
"6# c #F2813F",
"7# c #F2803D",
"8# c #F28344",
"9# c #F48B53",
":# c #A29060",
";# c #638F5D",
"<# c #779F77",
"=# c #649364",
"># c #A6C1A6",
"?# c None",
"  ! # $ % & ' ( ) * + , - . / 0 ",
"1 2 3 4 5 6 7 8 9 : ; - < = > ? ",
"@ 1 A B C D E F G H I . = J K L ",
"M N O P Q R S T U V W / > K X : ",
"Y Z [ ] ^ _ ` T a b c d ? L : e ",
"$ f g h i j k T l m n o p q r s ",
"t u v w x y z T { | } ~  !!!#!$!",
"_ %!&!'!(!)!*!+!,!-!.!/!0!1!2!3!",
"4!5!6!7!8!?#T 9!:!;!<!=!>!?!@!A!",
"B!C!?#T D!E!F!?#9!G!H!I!J!I!K!L!",
"M!T N!O!P!Q!R!T S!T!U!V!W!V!U!X!",
"Y!Z!Q![!]!^!_!`!a!b!c!d!e!f!c!g!",
"T h!i!j!k!l!m!n!o!p!q!r!r!r!q!p!",
"s!t!u!v!w!x!y!z!{!|!}!~! #!#}!|!",
"##$#%#&#'#(#)#*#+#,#-#.#/#}!-#0#",
"1#2#3#4#5#6#7#8#9#:#;#|!<#|!=#>#"
};
