/* XPM */
static char *vector[] = {
"16 16 217 2 0 0",
"   c #1CB2E5",
"!  c #1FB3E6",
"#  c #2EAED8",
"$  c #3DC6EC",
"%  c #52D4F1",
"&  c #68E1F5",
"'  c #5BA2B2",
"(  c #AD919E",
")  c #F6CEDC",
"*  c #F3C0D2",
"+  c #F1B3C8",
",  c #EFA8C1",
"-  c #EEA3BD",
".  c #EFA5BE",
"/  c #F0ADC4",
"0  c #F2B9CD",
"1  c #0BA7E2",
"2  c #0FAAE3",
"3  c #2E89AF",
"4  c #33C1EA",
"5  c #4BCFEF",
"6  c #62DEF4",
"7  c #58A1B1",
"8  c #AD8F9D",
"9  c #F6CBDA",
":  c #F3BCCF",
";  c #F1AFC5",
"<  c #ED9BB7",
"=  c #ED9EB9",
">  c #EFA9C1",
"?  c #F2B5CA",
"@  c #05A4E1",
"A  c #2C84AB",
"B  c #38A1C5",
"C  c #4AC2E1",
"D  c #61DDF4",
"E  c #5BAABB",
"F  c #A58896",
"G  c #F6CCDB",
"H  c #F3BED0",
"I  c #F1B0C6",
"J  c #EEA1BB",
"K  c #F0AAC2",
"L  c #F2B7CB",
"M  c #13ACE3",
"N  c #16AEE4",
"O  c #387392",
"P  c #418EAC",
"Q  c #4ED1F0",
"R  c #65DFF5",
"S  c #78E9F6",
"T  c #1F081B",
"U  c #F6D1DE",
"V  c #F4C3D4",
"W  c #F2B6CB",
"X  c #F1B1C7",
"Y  c #26B8E8",
"Z  c #28BAE8",
"[  c #3B94B5",
"]  c #489CB8",
"^  c #58A3B7",
"_  c #6DE4F6",
"`  c #80F0FA",
"a  c #F8D7E3",
"b  c #E0B8C7",
"c  c #725062",
"d  c #E0AABE",
"e  c #F4C6D6",
"f  c #3FC8ED",
"g  c #4C9BB5",
"h  c #5695A9",
"i  c #61A9BA",
"j  c #78EBF9",
"k  c #88F5FC",
"l  c #CEB6C0",
"m  c #64495A",
"n  c #66495A",
"o  c #D9AEBF",
"p  c #977183",
"q  c #E6B8C9",
"r  c #F5CAD9",
"s  c #F7D1DE",
"t  c #55D5F1",
"u  c #56D6F2",
"v  c #5CBBD0",
"w  c #66C1D2",
"x  c #6DB0BC",
"y  c #84F2FB",
"z  c #90FAFD",
"{  c #D7C5CD",
"|  c #C0A9B3",
"}  c #654C5C",
"~  c #957786",
" ! c #836676",
"!! c #866A79",
"#! c #EDCDD9",
"$! c #F9DEE7",
"%! c #6EE5F6",
"&! c #69A2AD",
"'! c #6EA1AB",
"(! c #7ABBC2",
")! c #8FFAFD",
"*! c #547782",
"+! c #7F707B",
",! c #FDF3F7",
"-! c #FBECF2",
".! c #B8A4AF",
"/! c #6E5766",
"0! c #705867",
"1! c #A38B97",
"2! c #7F6977",
"3! c #8E7A87",
"4! c #81F1FA",
"5! c #82F2FB",
"6! c #7ED1D8",
"7! c #7CBBC0",
"8! c #65848C",
"9! c #FFFFFF",
":! c #FEFBFC",
";! c #FDF7F9",
"<! c #FDF3F6",
"=! c #CEBFC7",
">! c #B2A2AB",
"?! c #73606E",
"@! c #EADEE3",
"A! c #E8DEE2",
"B! c #92FBFE",
"C! c #72BBC2",
"D! c #977D81",
"E! c #F8F5F3",
"F! c #7A6B74",
"G! c #FFFEFE",
"H! c #FEFCFD",
"I! c #FEFAFB",
"J! c #FEF9FB",
"K! c #A2979F",
"L! c #B3A9B0",
"M! c #FCFAFB",
"N! c #8EEBED",
"O! c #F8F5F1",
"P! c #FEF8F1",
"Q! c #FEF5EB",
"R! c #FDF3E7",
"S! c #FDF3E6",
"T! c #E3E0E2",
"U! c #F4F3F4",
"V! c #4A606C",
"W! c #DCD4D0",
"X! c #F88685",
"Y! c #F89089",
"Z! c #F99E93",
"[! c #FAD8C0",
"]! c #F69188",
"^! c #6F081B",
"_! c #91081B",
"`! c #49081B",
"a! c #71626E",
"b! c #C7C1C6",
"c! c #FDF1E1",
"d! c #F9AEA2",
"e! c #F8AE99",
"f! c #FADCB5",
"g! c #F67769",
"h! c #F78A77",
"i! c #F66A61",
"j! c #F8A48E",
"k! c #F89D92",
"l! c #FCEDD9",
"m! c #FDF5EA",
"n! c #ECE8E5",
"o! c #A59BA3",
"p! c #C2BBC1",
"q! c #BEAEA7",
"r! c #FBE8CE",
"s! c #F89C89",
"t! c #F69279",
"u! c #F6B286",
"v! c #F5775C",
"w! c #F6C88A",
"x! c #F5765E",
"y! c #F7A683",
"z! c #F67367",
"{! c #FAE3C4",
"|! c #FEF6ED",
"}! c #FFFDFC",
"~! c #FCFCFC",
" # c #FCEBD5",
"!# c #FADFBC",
"## c #F8C096",
"$# c #F58564",
"%# c #F59A65",
"&# c #F48F59",
"'# c #F4A261",
"(# c #F4945E",
")# c #F58860",
"*# c #F6A27C",
"+# c #F9CFA8",
",# c #FBE5C8",
"-# c #FDF0E1",
".# c #FEFAF5",
"/# c #FBFAFB",
"0# c #FBE5C9",
"1# c #F9D7AC",
"2# c #F6A578",
"3# c #F48F5C",
"4# c #F3874B",
"5# c #F2813F",
"6# c #F2803D",
"7# c #F28344",
"8# c #F48B53",
"9# c #F59466",
":# c #F7BE91",
";# c #FADEBA",
"<# c #FCEBD6",
"=# c #FEF7ED",
"># c #FFFEFD",
"?# c None",
"  ! # $ % & ' ( ) * + , - . / 0 ",
"1 2 3 4 5 6 7 8 9 : ; - < = > ? ",
"@ 1 A B C D E F G H I . = J K L ",
"M N O P Q R S T U V W / > K X : ",
"Y Z [ ] ^ _ ` T a b c d ? L : e ",
"$ f g h i j k T l m n o p q r s ",
"t u v w x y z T { | } ~  !!!#!$!",
"_ %!&!'!(!)!*!+!,!-!.!/!0!1!2!3!",
"4!5!6!7!8!?#T 9!:!;!<!=!>!?!@!A!",
"B!C!?#T D!E!F!?#9!G!H!I!J!K!L!M!",
"N!T O!P!Q!R!S!T T!9!9!9!9!9!U!9!",
"V!W!R!X!Y!Z![!]!^!_!`!T a!b!9!9!",
"T c!d!e!f!g!h!i!j!k!l!m!n!o!T p!",
"q!r!s!t!u!v!w!x!y!z!{!l!|!}!~!T ",
" #!###$#%#&#'#(#)#*#+#,#-#.#9!/#",
"0#1#2#3#4#5#6#7#8#9#:#;#<#=#>#9!"
};
